<?xml version="1.0" encoding="UTF-8" standalone="no"?>
<!DOCTYPE svg PUBLIC "-//W3C//DTD SVG 1.1//EN" "http://www.w3.org/Graphics/SVG/1.1/DTD/svg11.dtd">
<svg width="100%" height="100%" viewBox="0 0 2500 834" version="1.1" xmlns="http://www.w3.org/2000/svg" xmlns:xlink="http://www.w3.org/1999/xlink" xml:space="preserve" xmlns:serif="http://www.serif.com/" style="fill-rule:evenodd;clip-rule:evenodd;stroke-linejoin:round;stroke-miterlimit:2;">
    <g transform="matrix(4.16667,0,0,4.16667,0,0)">
        <g transform="matrix(15.8897,0,0,15.8897,-1577.51,-1485.87)">
            <g>
                <g transform="matrix(1,0,0,1,100.585,102.805)">
                    <g transform="matrix(12,0,0,12,0,0)">
                        <path d="M0.392,-0.366L0.117,-0.366L0.117,-0.664L0.461,-0.664L0.461,-0.704L0.079,-0.704L0.079,-0L0.117,-0L0.117,-0.326L0.392,-0.326L0.392,-0.366Z" style="fill:white;fill-rule:nonzero;"/>
                    </g>
                </g>
                <g transform="matrix(1,0,0,1,106.333,102.805)">
                    <g transform="matrix(12,0,0,12,0,0)">
                        <path d="M0.046,-0.5L0.046,0.002L0.086,0.002L0.086,-0.5L0.046,-0.5ZM0.069,-0.654C0.082,-0.654 0.092,-0.664 0.092,-0.676C0.092,-0.689 0.082,-0.699 0.069,-0.699C0.057,-0.699 0.046,-0.689 0.046,-0.676C0.046,-0.664 0.057,-0.654 0.069,-0.654Z" style="fill:white;fill-rule:nonzero;"/>
                    </g>
                    <g transform="matrix(12,0,0,12,1.164,0)">
                        <path d="M0.265,-0.502C0.218,-0.497 0.175,-0.481 0.14,-0.449C0.109,-0.42 0.088,-0.385 0.088,-0.385L0.088,-0.502L0.054,-0.502L0.054,-0L0.088,-0L0.088,-0.289C0.106,-0.38 0.175,-0.458 0.265,-0.466L0.265,-0.502Z" style="fill:white;fill-rule:nonzero;"/>
                    </g>
                    <g transform="matrix(12,0,0,12,3.696,0)">
                        <path d="M0.287,-0.507C0.152,-0.507 0.042,-0.393 0.042,-0.254C0.042,-0.114 0.152,-0.001 0.287,-0.001C0.35,-0.001 0.41,-0.026 0.455,-0.069L0.395,-0.07C0.363,-0.052 0.324,-0.039 0.287,-0.039C0.195,-0.039 0.096,-0.103 0.078,-0.235L0.532,-0.235C0.529,-0.388 0.425,-0.507 0.287,-0.507ZM0.079,-0.273C0.099,-0.412 0.195,-0.47 0.287,-0.47C0.379,-0.47 0.466,-0.404 0.492,-0.273L0.079,-0.273Z" style="fill:white;fill-rule:nonzero;"/>
                    </g>
                    <g transform="matrix(12,0,0,12,10.416,0)">
                        <path d="M0.274,-0.485C0.145,-0.485 0.039,-0.376 0.039,-0.243C0.039,-0.11 0.145,-0.001 0.274,-0.001C0.328,-0.001 0.379,-0.02 0.422,-0.055L0.472,-0.097L0.472,-0.001L0.511,-0.001L0.511,-0.753L0.472,-0.753L0.472,-0.389L0.422,-0.431C0.379,-0.466 0.328,-0.485 0.274,-0.485ZM0.274,-0.044C0.164,-0.044 0.08,-0.131 0.08,-0.243C0.08,-0.355 0.164,-0.439 0.274,-0.439C0.374,-0.439 0.456,-0.371 0.469,-0.269L0.469,-0.217C0.456,-0.115 0.374,-0.044 0.274,-0.044Z" style="fill:white;fill-rule:nonzero;"/>
                    </g>
                    <g transform="matrix(12,0,0,12,16.68,0)">
                        <path d="M0.511,-0.183C0.511,-0.246 0.479,-0.304 0.425,-0.337L0.393,-0.356L0.419,-0.383C0.45,-0.419 0.468,-0.463 0.468,-0.51C0.468,-0.612 0.385,-0.696 0.283,-0.697L0.056,-0.697L0.056,-0.001L0.331,-0.001C0.43,-0.002 0.511,-0.084 0.511,-0.183ZM0.096,-0.657L0.281,-0.657C0.363,-0.657 0.428,-0.592 0.428,-0.51C0.428,-0.429 0.363,-0.364 0.281,-0.364L0.096,-0.364L0.096,-0.657ZM0.332,-0.04L0.096,-0.04L0.096,-0.323L0.329,-0.323C0.411,-0.323 0.469,-0.261 0.469,-0.183C0.469,-0.103 0.412,-0.04 0.332,-0.04Z" style="fill:white;fill-rule:nonzero;"/>
                    </g>
                    <g transform="matrix(12,0,0,12,22.644,0)">
                        <path d="M0.484,-0.5L0.44,-0.5L0.263,-0.099L0.087,-0.5L0.042,-0.5L0.242,-0.04L0.116,0.253L0.161,0.253L0.295,-0.059L0.484,-0.5Z" style="fill:white;fill-rule:nonzero;"/>
                    </g>
                </g>
            </g>
        </g>
    </g>
</svg>
