<svg version="1.1" id="Layer_1" xmlns="http://www.w3.org/2000/svg" xmlns:xlink="http://www.w3.org/1999/xlink" x="0px" y="0px"
	 width="152px" height="25px" viewBox="0 0 152 25" enable-background="new 0 0 152 25" xml:space="preserve">
<g>
	<path fill-rule="evenodd" clip-rule="evenodd" fill="#FFFFFF" d="M149.587,20.891c0,1.097-0.357,2.002-1.069,2.715
		c-0.713,0.713-1.618,1.07-2.715,1.07c-1.097,0-2.002-0.357-2.715-1.07c-0.713-0.713-1.069-1.618-1.069-2.715
		c0-1.097,0.356-1.991,1.069-2.682c0.713-0.691,1.618-1.037,2.715-1.037c1.097,0,2.002,0.345,2.715,1.037
		C149.231,18.901,149.587,19.795,149.587,20.891z"/>
	<path fill-rule="evenodd" clip-rule="evenodd" fill="#FFFFFF" d="M135.815,24.314l-2.6-7.207l-1.547,1.974v5.232h-5.891V2.693
		l5.891-2.369v7.042c0,0.285-0.006,0.653-0.017,1.102c-0.011,0.45-0.022,0.911-0.033,1.382c-0.011,0.472-0.022,0.927-0.033,1.366
		c-0.011,0.439-0.017,0.79-0.017,1.053c0.11-0.197,0.274-0.461,0.494-0.79c0.219-0.329,0.455-0.675,0.707-1.037
		c0.252-0.362,0.505-0.713,0.757-1.053c0.252-0.34,0.466-0.631,0.642-0.872l1.152-1.481h6.746l-4.476,5.199l4.607,12.077H135.815z"
		/>
	<path fill-rule="evenodd" clip-rule="evenodd" fill="#FFFFFF" d="M123.469,13.553c-0.373-0.417-0.784-0.762-1.234-1.037
		c-0.45-0.274-0.96-0.411-1.53-0.411c-0.724,0-1.294,0.203-1.711,0.609c-0.417,0.406-0.625,1.136-0.625,2.188v9.412h-5.89V7.037
		h5.89v1.25c0.505-0.505,1.053-0.899,1.646-1.185c0.592-0.285,1.272-0.428,2.04-0.428c0.636,0,1.174,0.066,1.612,0.197
		c0.439,0.132,0.834,0.307,1.185,0.527L123.469,13.553z"/>
	<path fill-rule="evenodd" clip-rule="evenodd" fill="#FFFFFF" d="M111.579,15.659c0,1.492-0.203,2.797-0.609,3.916
		c-0.406,1.119-0.976,2.057-1.711,2.814c-0.735,0.757-1.607,1.327-2.616,1.711c-1.009,0.384-2.106,0.576-3.291,0.576
		c-1.185,0-2.282-0.192-3.291-0.576c-1.009-0.384-1.876-0.954-2.6-1.711c-0.724-0.757-1.289-1.695-1.695-2.814
		c-0.406-1.119-0.609-2.424-0.609-3.916c0-1.514,0.203-2.83,0.609-3.949c0.406-1.119,0.971-2.051,1.695-2.797
		c0.724-0.746,1.591-1.305,2.6-1.678c1.009-0.373,2.106-0.559,3.291-0.559c1.185,0,2.282,0.186,3.291,0.559
		c1.009,0.373,1.881,0.932,2.616,1.678c0.735,0.746,1.305,1.678,1.711,2.797C111.376,12.829,111.579,14.145,111.579,15.659
		L111.579,15.659z M105.688,15.659c0-1.459-0.197-2.512-0.587-3.165c-0.395-0.653-0.971-0.982-1.733-0.982
		c-0.762,0-1.338,0.329-1.733,0.982c-0.39,0.653-0.587,1.706-0.587,3.165c0,2.786,0.773,4.179,2.32,4.179
		C104.915,19.838,105.688,18.445,105.688,15.659z"/>
	<path fill-rule="evenodd" clip-rule="evenodd" fill="#FFFFFF" d="M91.297,24.314h-4.805l-0.724-3.521
		c-0.11-0.483-0.225-1.064-0.346-1.744c-0.121-0.68-0.241-1.36-0.362-2.04c-0.121-0.68-0.236-1.316-0.346-1.909
		c-0.11-0.592-0.186-1.042-0.23-1.349c-0.066,0.307-0.148,0.757-0.247,1.349c-0.099,0.592-0.208,1.229-0.329,1.909
		c-0.121,0.68-0.247,1.36-0.378,2.04c-0.132,0.68-0.252,1.283-0.362,1.81l-0.724,3.455h-4.673l-4.87-17.277h5.726l0.494,2.567
		c0.088,0.505,0.186,1.092,0.296,1.761c0.11,0.669,0.219,1.344,0.329,2.024c0.11,0.68,0.208,1.317,0.296,1.909
		c0.088,0.592,0.154,1.042,0.197,1.349c0.066-0.307,0.148-0.757,0.247-1.349c0.099-0.592,0.214-1.229,0.346-1.909
		c0.132-0.68,0.263-1.36,0.395-2.04c0.132-0.68,0.252-1.283,0.362-1.81l0.559-2.501h4.87l0.526,2.501
		c0.11,0.527,0.23,1.13,0.362,1.81c0.132,0.68,0.263,1.36,0.395,2.04c0.132,0.68,0.247,1.317,0.346,1.909
		c0.099,0.592,0.181,1.042,0.247,1.349c0.044-0.307,0.11-0.757,0.198-1.349c0.088-0.592,0.186-1.229,0.296-1.909
		c0.11-0.68,0.219-1.355,0.329-2.024c0.11-0.669,0.219-1.256,0.329-1.761l0.461-2.567h5.66L91.297,24.314z"/>
	<path fill-rule="evenodd" clip-rule="evenodd" fill="#FFFFFF" d="M67.395,24.314v-9.807c0-1.119-0.165-1.87-0.499-2.254
		c-0.329-0.384-0.795-0.576-1.393-0.576c-0.62,0-1.097,0.186-1.426,0.559c-0.335,0.373-0.499,1.108-0.499,2.205v9.872h-5.891v-9.807
		c0-1.119-0.17-1.87-0.516-2.254c-0.34-0.384-0.812-0.576-1.41-0.576c-0.62,0-1.097,0.186-1.426,0.559
		c-0.335,0.373-0.499,1.108-0.499,2.205v9.872h-5.89V7.037h5.89l0.033,1.152c0.483-0.395,1.053-0.746,1.711-1.053
		c0.658-0.307,1.459-0.461,2.402-0.461c1.185,0,2.139,0.175,2.863,0.526c0.724,0.351,1.36,0.823,1.909,1.415
		c0.614-0.505,1.311-0.954,2.09-1.349c0.779-0.395,1.761-0.592,2.945-0.592c1.952,0,3.368,0.609,4.245,1.826
		c0.878,1.218,1.316,2.967,1.316,5.249v10.564H67.395z"/>
	<path fill-rule="evenodd" clip-rule="evenodd" fill="#FFFFFF" d="M41.453,24.314v-1.152c-0.57,0.439-1.218,0.801-1.941,1.086
		c-0.724,0.285-1.481,0.428-2.271,0.428c-1.689,0-3.044-0.505-4.064-1.514c-1.02-1.009-1.53-2.49-1.53-4.443
		c0-0.921,0.154-1.733,0.461-2.435c0.307-0.702,0.735-1.289,1.283-1.76c0.548-0.472,1.201-0.828,1.958-1.07
		c0.757-0.241,1.596-0.362,2.517-0.362c0.79,0,1.464,0.066,2.024,0.197c0.559,0.132,1.08,0.307,1.563,0.527v-0.856
		c0-0.768-0.203-1.3-0.609-1.596c-0.406-0.296-1.015-0.444-1.826-0.444c-0.9,0-1.717,0.093-2.452,0.28s-1.519,0.51-2.353,0.971
		l-1.547-3.916c1.053-0.505,2.177-0.894,3.373-1.168c1.196-0.274,2.55-0.411,4.064-0.411c2.413,0,4.174,0.57,5.282,1.711
		c1.108,1.141,1.662,2.709,1.662,4.706v11.222H41.453L41.453,24.314z M41.453,17.272c-0.329-0.154-0.691-0.274-1.086-0.362
		c-0.395-0.088-0.878-0.132-1.448-0.132c-1.229,0-1.843,0.614-1.843,1.843c0,0.548,0.148,0.998,0.444,1.349
		c0.296,0.351,0.762,0.527,1.399,0.527c0.505,0,0.982-0.082,1.431-0.247c0.45-0.165,0.817-0.367,1.102-0.609V17.272z"/>
	<path fill-rule="evenodd" clip-rule="evenodd" fill="#FFFFFF" d="M30.823,16.219c0,0.241,0,0.455,0,0.642
		c0,0.186-0.011,0.357-0.033,0.51H20.655c0.11,0.965,0.422,1.667,0.938,2.106c0.516,0.439,1.179,0.658,1.991,0.658
		c0.768,0,1.492-0.093,2.172-0.28c0.68-0.187,1.448-0.499,2.304-0.938l2.271,3.785c-1.075,0.636-2.177,1.124-3.307,1.464
		c-1.13,0.34-2.375,0.51-3.735,0.51c-1.294,0-2.446-0.22-3.455-0.658c-1.009-0.439-1.854-1.053-2.534-1.843
		c-0.68-0.79-1.196-1.739-1.547-2.846c-0.351-1.108-0.527-2.32-0.527-3.636c0-1.492,0.197-2.797,0.592-3.916
		c0.395-1.119,0.943-2.057,1.645-2.814c0.702-0.757,1.536-1.327,2.501-1.711c0.965-0.384,2.018-0.576,3.159-0.576
		c2.369,0,4.245,0.79,5.627,2.369C30.132,10.624,30.823,13.016,30.823,16.219L30.823,16.219z M25.591,13.685
		c-0.154-0.878-0.411-1.536-0.773-1.975c-0.362-0.439-0.982-0.658-1.859-0.658c-1.338,0-2.106,0.878-2.304,2.633H25.591z"/>
	<path fill-rule="evenodd" clip-rule="evenodd" fill="#FFFFFF" d="M13.898,23.755c-0.57,0.285-1.218,0.51-1.942,0.675
		c-0.724,0.165-1.503,0.247-2.336,0.247c-1.58,0-2.737-0.422-3.472-1.267c-0.735-0.845-1.102-2.254-1.102-4.229v-7.503H2.413v-4.64
		h2.633V2.66l5.759-2.336v6.713h3.752v4.64h-3.752v6.253c0,0.658,0.121,1.108,0.362,1.349c0.241,0.241,0.614,0.362,1.119,0.362
		c0.395,0,0.773-0.077,1.135-0.23c0.362-0.153,0.773-0.384,1.234-0.691L13.898,23.755z"/>
</g>
</svg>
